<?xml version="1.0" encoding="UTF-8" standalone="no"?>
<svg
   xmlns:dc="http://purl.org/dc/elements/1.1/"
   xmlns:cc="http://creativecommons.org/ns#"
   xmlns:rdf="http://www.w3.org/1999/02/22-rdf-syntax-ns#"
   xmlns:svg="http://www.w3.org/2000/svg"
   xmlns="http://www.w3.org/2000/svg"
   viewBox="0 0 3285.3333 2176"
   height="2176"
   width="3285.3333"
   xml:space="preserve"
   id="svg2"
   version="1.1"><metadata
     id="metadata8"><rdf:RDF><cc:Work
         rdf:about=""><dc:format>image/svg+xml</dc:format><dc:type
           rdf:resource="http://purl.org/dc/dcmitype/StillImage" /></cc:Work></rdf:RDF></metadata><defs
     id="defs6"><clipPath
       id="clipPath20"
       clipPathUnits="userSpaceOnUse"><path
         id="path18"
         d="M 0,1632 H 2464 V 0 H 0 Z" /></clipPath></defs><g
     transform="matrix(1.3333333,0,0,-1.3333333,0,2176)"
     id="g10"><path
       id="path12"
       style="fill:#ffffff;fill-opacity:1;fill-rule:nonzero;stroke:none"
       d="M 0,0 H 2464 V 1632 H 0 Z" /><g
       id="g14"><g
         clip-path="url(#clipPath20)"
         id="g16"><g
           transform="translate(2333.2549,1350.1006)"
           id="g22"><path
             id="path24"
             style="fill:#ef381f;fill-opacity:1;fill-rule:nonzero;stroke:none"
             d="m 0,0 c -26.515,114.745 -120.81,212.957 -226.053,210.009 -150.741,-4.223 -186.126,-145.8 -186.126,-145.8 0,0 -35.384,141.577 -186.126,145.8 C -703.548,212.957 -797.844,114.745 -824.358,0 c -40.787,-176.512 80.346,-279.21 146.762,-306.719 115.756,-47.943 265.417,-131.379 265.417,-217.104 0,85.725 149.661,169.161 265.416,217.104 C -80.346,-279.21 40.787,-176.512 0,0" /></g><g
           transform="translate(2173.6064,1315.4048)"
           id="g26"><path
             id="path28"
             style="fill:#373b3b;fill-opacity:1;fill-rule:nonzero;stroke:none"
             d="m 0,0 c 44.468,-55.61 35.435,-136.74 -20.177,-181.208 -55.61,-44.467 -136.739,-35.434 -181.207,20.177 -44.468,55.611 -35.434,136.74 20.176,181.207 C -125.597,64.644 -44.468,55.611 0,0" /></g><g
           transform="translate(2151.668,1135.9595)"
           id="g30"><path
             id="path32"
             style="fill:#414646;fill-opacity:1;fill-rule:nonzero;stroke:none"
             d="m 0,0 c -55.61,-44.467 -133.216,-35.434 -177.684,20.176 -44.466,55.611 -35.433,133.216 20.177,177.683 z" /></g><g
           transform="translate(2159.876,1304.4253)"
           id="g34"><path
             id="path36"
             style="fill:#dcddd3;fill-opacity:1;fill-rule:nonzero;stroke:none"
             d="m 0,0 c 38.403,-48.027 30.602,-118.093 -17.425,-156.497 -48.028,-38.404 -118.094,-30.603 -156.498,17.425 -38.403,48.027 -30.602,118.093 17.425,156.497 C -108.471,55.829 -38.404,48.028 0,0" /></g><g
           transform="translate(2099.2969,1278.2959)"
           id="g38"><path
             id="path40"
             style="fill:#fefef7;fill-opacity:1;fill-rule:nonzero;stroke:none"
             d="M 0,0 28.296,53.586 C 14.755,61.214 -0.129,65.848 -15.341,67.366 V 4.954 Z" /></g><g
           transform="translate(2062.335,1345.7158)"
           id="g42"><path
             id="path44"
             style="fill:#fefef7;fill-opacity:1;fill-rule:nonzero;stroke:none"
             d="M 0,0 C -7.624,-0.72 -15.201,-2.235 -22.611,-4.547 L 4.282,-59.989 Z" /></g><g
           transform="translate(1962.2656,1222.6172)"
           id="g46"><path
             id="path48"
             style="fill:#fefef7;fill-opacity:1;fill-rule:nonzero;stroke:none"
             d="M 0,0 C 0.506,-4.602 1.289,-9.183 2.375,-13.719 L 67.195,-2.65 Z" /></g><g
           transform="translate(2029.4609,1213.5835)"
           id="g50"><path
             id="path52"
             style="fill:#fefef7;fill-opacity:1;fill-rule:nonzero;stroke:none"
             d="m 0,0 -62.121,-14.163 c 0.7,-2.082 1.484,-4.144 2.312,-6.195 l 69.717,3.369 z" /></g><g
           transform="translate(2182.0166,1212.7163)"
           id="g54"><path
             id="path56"
             style="fill:#fefef7;fill-opacity:1;fill-rule:nonzero;stroke:none"
             d="M 0,0 C 3.733,18.422 2.797,37.699 -2.996,55.925 L -76.242,29.663 Z" /></g><g
           transform="translate(2124.1758,1275.8789)"
           id="g58"><path
             id="path60"
             style="fill:#242428;fill-opacity:1;fill-rule:nonzero;stroke:none"
             d="m 0,0 c 22.638,-28.311 18.039,-69.613 -10.271,-92.251 -28.311,-22.638 -69.614,-18.039 -92.251,10.272 -22.639,28.311 -18.04,69.613 10.271,92.25 C -63.94,32.91 -22.638,28.311 0,0" /></g><g
           transform="translate(2119.2344,1271.9277)"
           id="g62"><path
             id="path64"
             style="fill:#f8f8f6;fill-opacity:1;fill-rule:nonzero;stroke:none"
             d="m 0,0 c 20.456,-25.582 16.301,-62.902 -9.281,-83.358 -25.582,-20.456 -62.903,-16.301 -83.359,9.281 -20.456,25.582 -16.3,62.903 9.282,83.358 C -57.776,29.737 -20.456,25.582 0,0" /></g><g
           transform="translate(2129.8701,1251.4448)"
           id="g66"><path
             id="path68"
             style="fill:#ffffff;fill-opacity:1;fill-rule:nonzero;stroke:none"
             d="M 0,0 C -0.983,3.39 -2.28,6.717 -3.895,9.941 L -56.956,-16.556 Z" /></g><g
           transform="translate(2036.0371,1281.332)"
           id="g70"><path
             id="path72"
             style="fill:#ffffff;fill-opacity:1;fill-rule:nonzero;stroke:none"
             d="M 0,0 C -0.053,-0.042 -0.108,-0.081 -0.161,-0.123 -3.442,-2.747 -6.365,-5.652 -8.936,-8.771 L 34.697,-40.653 Z" /></g><g
           transform="translate(2066.6172,1238.5015)"
           id="g74"><path
             id="path76"
             style="fill:#ffffff;fill-opacity:1;fill-rule:nonzero;stroke:none"
             d="M 0,0 -48.356,19.446 C -50.543,14.25 -51.963,8.786 -52.607,3.231 L -5.19,-3.612 Z" /></g><g
           transform="translate(2036.0176,1188.4629)"
           id="g78"><path
             id="path80"
             style="fill:#ffffff;fill-opacity:1;fill-rule:nonzero;stroke:none"
             d="m 0,0 c 12.277,-9.774 27.76,-14.094 42.906,-12.566 l -7.02,55.138 z" /></g><g
           transform="translate(2087.3887,1177.3779)"
           id="g82"><path
             id="path84"
             style="fill:#b3b2ad;fill-opacity:1;fill-rule:nonzero;stroke:none"
             d="m 0,0 c 7.997,2.007 15.704,5.706 22.564,11.191 0.869,0.694 1.707,1.411 2.525,2.143 l -39.564,44.177 z" /></g><g
           transform="translate(2083.9561,1228.5942)"
           id="g86"><path
             id="path88"
             style="fill:#b3b2ad;fill-opacity:1;fill-rule:nonzero;stroke:none"
             d="m 0,0 47.054,-5.611 c 1.53,7.488 1.613,15.244 0.203,22.817 L -3.314,6.295 Z" /></g><g
           transform="translate(2086.9336,1292.5034)"
           id="g90"><path
             id="path92"
             style="fill:#b3b2ad;fill-opacity:1;fill-rule:nonzero;stroke:none"
             d="M 0,0 C -8.412,2.041 -17.219,2.234 -25.772,0.512 L -14.02,-51.825 Z" /></g><g
           transform="translate(2061.4268,1234.8892)"
           id="g94"><path
             id="path96"
             style="fill:#b3b2ad;fill-opacity:1;fill-rule:nonzero;stroke:none"
             d="m 0,0 -47.367,-7.322 c 1.138,-9.226 4.469,-18.28 10.06,-26.363 l 39.409,27.39 z" /></g><g
           transform="translate(2084.5693,1244.2085)"
           id="g98"><path
             id="path100"
             style="fill:#242428;fill-opacity:1;fill-rule:nonzero;stroke:none"
             d="m 0,0 c 5.146,-6.437 4.101,-15.827 -2.336,-20.974 -6.436,-5.147 -15.826,-4.101 -20.974,2.336 -5.146,6.436 -4.1,15.826 2.336,20.973 C -14.537,7.482 -5.147,6.437 0,0" /></g><g
           transform="translate(2177.123,1128.6719)"
           id="g102"><path
             id="path104"
             style="fill:#1f1f22;fill-opacity:1;fill-rule:nonzero;stroke:none"
             d="M 0,0 -23.514,-18.802 -77.826,49.12 -54.313,67.922 Z" /></g><g
           transform="translate(2165.6787,1119.521)"
           id="g106"><path
             id="path108"
             style="fill:#242428;fill-opacity:1;fill-rule:nonzero;stroke:none"
             d="m 0,0 -12.069,-9.651 -54.313,67.922 13.18,10.539 z" /></g><g
           transform="translate(904.4556,383.2842)"
           id="g110"><path
             id="path112"
             style="fill:#dcddd3;fill-opacity:1;fill-rule:nonzero;stroke:none"
             d="m 0,0 c 3.627,-3.637 4.491,-9.394 1.756,-14.02 -0.812,-1.375 -82.549,-138.712 -189.89,-242.305 -40.574,-39.157 -79.268,-60.208 -115.007,-62.568 -35.888,-2.368 -58.11,15.171 -65.999,22.822 -21.214,20.537 -53.517,63.749 -54.882,65.577 -3.814,5.108 -2.765,12.34 2.342,16.153 5.107,3.814 12.338,2.757 16.153,-2.343 0.323,-0.431 32.622,-43.542 52.456,-62.818 12.6,-12.22 60.575,-45.463 148.909,39.786 C -99.125,-138.348 -18.91,-3.619 -18.113,-2.271 -14.867,3.215 -7.789,5.032 -2.304,1.788 -1.443,1.279 -0.674,0.676 0,0" /></g><g
           transform="translate(901.7334,383.2891)"
           id="g114"><path
             id="path116"
             style="fill:#fefef7;fill-opacity:1;fill-rule:nonzero;stroke:none"
             d="m 0,0 c 2.418,-2.424 2.994,-6.262 1.17,-9.347 -0.81,-1.371 -82.279,-138.26 -189.249,-241.494 -39.902,-38.509 -77.783,-59.2 -112.59,-61.498 -34.348,-2.266 -55.548,14.451 -63.068,21.744 -21.001,20.372 -53.12,63.301 -54.478,65.118 -2.542,3.406 -1.843,8.226 1.562,10.769 3.405,2.542 8.233,1.836 10.769,-1.562 0.325,-0.435 32.745,-43.79 52.86,-63.278 6.045,-5.863 23.149,-19.297 51.341,-17.435 31.079,2.051 65.704,21.3 102.917,57.214 105.489,101.804 185.891,236.902 186.69,238.254 2.163,3.658 6.881,4.869 10.539,2.707 C -0.962,0.854 -0.45,0.451 0,0" /></g><g
           transform="translate(483.8745,144.7412)"
           id="g118"><path
             id="path120"
             style="fill:#242428;fill-opacity:1;fill-rule:nonzero;stroke:none"
             d="M 0,0 C 0,0 -24.43,22.923 -31.851,33.275 -44.033,50.271 -10.479,74.323 1.705,57.327 9.125,46.975 22.987,16.477 22.987,16.477 16.128,10.583 8.4,5.124 0,0" /></g><g
           transform="translate(629.5557,658.8779)"
           id="g122"><path
             id="path124"
             style="fill:#dcddd3;fill-opacity:1;fill-rule:nonzero;stroke:none"
             d="m 0,0 c -3.627,3.637 -9.382,4.515 -14.015,1.792 -1.377,-0.81 -138.921,-82.199 -242.783,-189.278 -39.26,-40.476 -60.408,-79.117 -62.857,-114.85 -2.46,-35.881 15.023,-58.148 22.654,-66.056 20.484,-21.266 63.613,-53.677 65.439,-55.047 5.098,-3.827 12.332,-2.796 16.158,2.301 3.826,5.097 2.788,12.331 -2.301,16.159 -0.432,0.324 -43.461,32.732 -62.686,52.614 -12.188,12.631 -45.311,60.689 40.161,148.808 C -138.597,-98.776 -3.667,-18.9 -2.317,-18.106 3.177,-14.875 5.012,-7.802 1.782,-2.308 1.276,-1.446 0.675,-0.676 0,0" /></g><g
           transform="translate(629.5542,656.1562)"
           id="g126"><path
             id="path128"
             style="fill:#fefef7;fill-opacity:1;fill-rule:nonzero;stroke:none"
             d="m 0,0 c -2.418,2.424 -6.255,3.01 -9.344,1.193 -1.373,-0.806 -138.468,-81.93 -241.971,-188.639 -38.609,-39.805 -59.395,-77.634 -61.781,-112.435 -2.354,-34.342 14.311,-55.584 21.585,-63.122 20.319,-21.053 63.166,-53.279 64.98,-54.643 3.399,-2.549 8.221,-1.863 10.772,1.536 2.551,3.398 1.857,8.228 -1.533,10.772 -0.435,0.326 -43.708,32.856 -63.145,53.021 -5.849,6.059 -19.239,23.196 -17.307,51.384 2.13,31.074 21.467,65.651 57.474,102.773 C -138.2,-92.93 -2.9,-12.869 -1.545,-12.072 2.118,-9.919 3.341,-5.204 1.188,-1.54 0.851,-0.965 0.45,-0.451 0,0" /></g><g
           transform="translate(389.9531,238.9004)"
           id="g130"><path
             id="path132"
             style="fill:#242428;fill-opacity:1;fill-rule:nonzero;stroke:none"
             d="M 0,0 C 0,0 22.861,-24.488 33.195,-31.935 50.16,-44.16 74.297,-10.666 57.331,1.56 46.998,9.006 16.535,22.944 16.535,22.944 10.624,16.102 5.145,8.387 0,0" /></g><g
           transform="translate(607.7329,660.334)"
           id="g134"><path
             id="path136"
             style="fill:#242428;fill-opacity:1;fill-rule:nonzero;stroke:none"
             d="M 0,0 C -6.496,-8.411 2.175,-37.036 24.754,-23.75 72.42,4.299 134.56,36.042 191.373,49.7 c 56.051,13.289 92.766,22.341 137.077,-21.56 43.404,-43.004 36.003,-82.476 22.572,-138.494 -13.801,-56.778 -47.632,-121.089 -79.31,-166.424 -8.745,-12.516 14.905,-29.967 26.41,-22.098 13.931,9.528 54.694,96.104 74.158,153.384 18.692,56.493 29.491,119.5 11.301,165.692 l 14.243,52.649 c -10.885,13.089 -10.49,12.912 -23.551,23.829 L 320.649,83.291 C 274.502,101.599 211.469,90.958 154.929,72.409 97.599,53.089 11.685,15.129 0,0" /></g><g
           transform="translate(1429.6367,575.1738)"
           id="g138"><path
             id="path140"
             style="fill:#242428;fill-opacity:1;fill-rule:nonzero;stroke:none"
             d="m 0,0 -62.397,302.519 -54.466,-153.407 -65.687,116.591 -57.773,-110.676 -79.425,67.06 c -7.436,6.278 -8.375,17.396 -2.096,24.833 6.278,7.437 17.397,8.376 24.833,2.096 l 45.805,-38.673 67.475,129.26 59.564,-105.723 70.789,199.38 62.853,-304.725 50.003,136.74 81.895,-69.124 c 7.438,-6.277 8.378,-17.395 2.1,-24.833 -6.279,-7.438 -17.399,-8.376 -24.833,-2.099 l -43.374,36.609 z" /></g><g
           transform="translate(1755.1309,740.2363)"
           id="g142"><path
             id="path144"
             style="fill:#242428;fill-opacity:1;fill-rule:nonzero;stroke:none"
             d="m 0,0 h -195.487 c -9.733,0 -17.623,7.89 -17.623,17.622 0,9.732 7.89,17.622 17.623,17.622 H 0 c 9.732,0 17.622,-7.89 17.622,-17.622 C 17.622,7.89 9.732,0 0,0" /></g><g
           transform="translate(1918.5654,580.2344)"
           id="g146"><path
             id="path148"
             style="fill:#242428;fill-opacity:1;fill-rule:nonzero;stroke:none"
             d="m 0,0 -58.422,201.806 -44.001,-83.91 -62.562,45.474 c -7.871,5.722 -9.615,16.742 -3.893,24.615 5.724,7.875 16.745,9.618 24.616,3.894 l 29.57,-21.493 65.755,125.401 51.349,-177.374 50.151,150.072 59.515,-114.646 49.66,82.91 60.808,-54.658 43.587,27.984 c 8.191,5.257 19.092,2.88 24.349,-5.307 5.257,-8.191 2.881,-19.092 -5.309,-24.351 l -66.2,-42.504 -48.981,44.026 -60.113,-100.362 -50.26,96.821 z" /></g><g
           transform="translate(973.8027,711.3262)"
           id="g150"><path
             id="path152"
             style="fill:#242428;fill-opacity:1;fill-rule:nonzero;stroke:none"
             d="m 0,0 c -5.805,0 -11.486,2.863 -14.852,8.112 -5.252,8.194 -2.868,19.094 5.325,24.347 17.989,11.532 33.97,30.03 49.425,47.92 23.194,26.844 45.102,52.201 73.974,53.122 15.945,0.505 31.479,-6.81 46.155,-21.754 6.82,-6.944 6.719,-18.101 -0.225,-24.921 -6.943,-6.819 -18.1,-6.72 -24.921,0.226 -7.493,7.629 -14.175,11.36 -19.885,11.223 C 101.568,97.846 83.775,77.253 66.568,57.336 50.265,38.468 31.788,17.081 9.494,2.787 6.551,0.901 3.256,0 0,0" /></g><g
           transform="translate(2194.2344,757.8564)"
           id="g154"><path
             id="path156"
             style="fill:#242428;fill-opacity:1;fill-rule:nonzero;stroke:none"
             d="m 0,0 c -5.666,0 -11.228,2.727 -14.632,7.779 -5.436,8.072 -3.301,19.024 4.771,24.461 34.654,23.343 54.646,56.142 59.422,97.489 7.823,67.724 -27.735,153.354 -92.796,223.474 -6.62,7.134 -6.204,18.285 0.931,24.904 7.133,6.62 18.284,6.203 24.904,-0.932 C 55.56,298.544 93.68,204.529 84.572,125.685 78.646,74.375 52.799,31.954 9.829,3.009 6.81,0.975 3.387,0 0,0" /></g></g></g></g></svg>